<svg xmlns="http://www.w3.org/2000/svg" viewBox="0 0 48 48" fill="none">
  <!-- Chip body -->
  <rect x="12" y="12" width="24" height="24" rx="4" stroke="#00d4aa" stroke-width="2.5" fill="none"/>
  <!-- Chip pins -->
  <line x1="18" y1="12" x2="18" y2="6" stroke="#00d4aa" stroke-width="2" stroke-linecap="round"/>
  <line x1="24" y1="12" x2="24" y2="6" stroke="#00d4aa" stroke-width="2" stroke-linecap="round"/>
  <line x1="30" y1="12" x2="30" y2="6" stroke="#00d4aa" stroke-width="2" stroke-linecap="round"/>
  <line x1="18" y1="36" x2="18" y2="42" stroke="#00d4aa" stroke-width="2" stroke-linecap="round"/>
  <line x1="24" y1="36" x2="24" y2="42" stroke="#00d4aa" stroke-width="2" stroke-linecap="round"/>
  <line x1="30" y1="36" x2="30" y2="42" stroke="#00d4aa" stroke-width="2" stroke-linecap="round"/>
  <line x1="12" y1="18" x2="6" y2="18" stroke="#00d4aa" stroke-width="2" stroke-linecap="round"/>
  <line x1="12" y1="24" x2="6" y2="24" stroke="#00d4aa" stroke-width="2" stroke-linecap="round"/>
  <line x1="12" y1="30" x2="6" y2="30" stroke="#00d4aa" stroke-width="2" stroke-linecap="round"/>
  <line x1="36" y1="18" x2="42" y2="18" stroke="#00d4aa" stroke-width="2" stroke-linecap="round"/>
  <line x1="36" y1="24" x2="42" y2="24" stroke="#00d4aa" stroke-width="2" stroke-linecap="round"/>
  <line x1="36" y1="30" x2="42" y2="30" stroke="#00d4aa" stroke-width="2" stroke-linecap="round"/>
  <!-- WiFi signal inside chip -->
  <path d="M20 28a5.6 5.6 0 0 1 8 0" stroke="#00d4aa" stroke-width="2" stroke-linecap="round" fill="none"/>
  <path d="M17.5 25.5a9.5 9.5 0 0 1 13 0" stroke="#00d4aa" stroke-width="2" stroke-linecap="round" fill="none"/>
  <circle cx="24" cy="31" r="1.5" fill="#00d4aa"/>
</svg>
